<?xml version="1.0" encoding="UTF-8" standalone="no" ?>
<!DOCTYPE svg PUBLIC "-//W3C//DTD SVG 1.1//EN" "http://www.w3.org/Graphics/SVG/1.1/DTD/svg11.dtd">
<svg xmlns="http://www.w3.org/2000/svg" xmlns:xlink="http://www.w3.org/1999/xlink" version="1.1" width="1280" height="1024" viewBox="0 0 1280 1024" xml:space="preserve">
<desc>Created with Fabric.js 3.1.0</desc>
<defs>
</defs>
<g transform="matrix(1 0 0 1 640 512)" id="background-logo"  >
<rect style="stroke: none; stroke-width: 1; stroke-dasharray: none; stroke-linecap: butt; stroke-dashoffset: 0; stroke-linejoin: miter; stroke-miterlimit: 4; fill: rgb(0,0,0); fill-rule: nonzero; opacity: 1;"  paint-order="stroke"  x="-640" y="-512" rx="0" ry="0" width="1280" height="1024" />
</g>
<g transform="matrix(1.965451055662188 0 0 1.965451055662188 642.5191938579654 762.5311324376199)" id="text-logo-path"  >
<linearGradient id="SVGID_79723" gradientUnits="userSpaceOnUse" gradientTransform="matrix(1 0 0 1 1.6500000000000057 -86.24)"  x1="0" y1="0" x2="0" y2="93">
<stop offset="0%" style="stop-color:rgb(66,230,149);stop-opacity: 1"/>
<stop offset="100%" style="stop-color:rgb(59,178,184);stop-opacity: 1"/>
</linearGradient>
<path style="stroke: rgb(127,216,88); stroke-width: 0; stroke-dasharray: none; stroke-linecap: butt; stroke-dashoffset: 0; stroke-linejoin: miter; stroke-miterlimit: 4; fill: url(#SVGID_79723); fill-rule: nonzero; opacity: 1;"  paint-order="stroke"  transform=" translate(-213.16500000000002, 29.11)" d="M 1.65 -84.9 L 1.65 -79.22 L 12.51 -79.22 L 12.51 -5.62 L 12.63 -5.62 L 12.63 0 L 29.85 0 L 29.85 -5.62 L 18.98 -5.62 L 18.98 -30.52 L 54.02 0 L 66.77 0 L 66.77 -5.62 L 57.74 -5.62 L 26.98 -31.37 L 59.39 -53.53 L 65.73 -53.53 L 65.73 -59.14 L 57.74 -59.14 Q 57.5 -59.02 54.99 -57.25 Q 52.49 -55.48 48 -52.37 Q 43.52 -49.26 38.45 -45.81 Q 33.39 -42.36 28.2 -38.82 Q 23.01 -35.28 18.98 -32.65 L 18.98 -32.65 L 18.98 -84.9 L 1.65 -84.9 Z M 72.88 -59.14 L 72.88 -53.53 L 83.25 -53.53 L 83.25 -13.85 Q 83.25 -6.84 87.34 -2.99 L 87.34 -2.99 Q 91.19 0.85 98.33 0.85 L 98.33 0.85 Q 105.1 0.85 110.96 -1.89 L 110.96 -1.89 Q 113.83 -3.3 116.46 -4.82 Q 119.08 -6.35 121.22 -8.36 L 121.22 -8.36 L 121.22 0 L 138 0 L 138 -5.62 L 127.75 -5.62 L 127.75 -59.14 L 121.22 -59.14 L 121.22 -53.53 L 121.22 -15.63 Q 116.82 -11.23 110.96 -8.12 Q 105.1 -5 99.49 -5 L 99.49 -5 Q 94.85 -5 92.22 -7.63 L 92.22 -7.63 Q 89.72 -10.38 89.72 -15.01 L 89.72 -15.01 L 89.72 -59.14 L 72.88 -59.14 Z M 137.63 -84.9 L 137.63 -79.22 L 148.38 -79.22 L 148.38 -5.62 L 148.38 0 L 154.85 0 L 154.85 -11.9 Q 159.85 -4.64 165.59 -1.89 L 165.59 -1.89 Q 171.08 0.85 177.25 0.85 L 177.25 0.85 Q 190.73 0.85 199.13 -7.9 Q 207.52 -16.66 207.52 -30.64 L 207.52 -30.64 Q 207.52 -43.88 199.1 -52.25 L 199.1 -52.25 Q 190.86 -60.73 177.86 -60.73 L 177.86 -60.73 Q 171.63 -60.73 165.47 -57.62 L 165.47 -57.62 Q 159.24 -54.38 154.85 -46.88 L 154.85 -46.88 L 154.85 -84.9 L 137.63 -84.9 Z M 154.72 -30.15 L 154.72 -30.15 Q 154.72 -41.26 161.62 -48.28 L 161.62 -48.28 Q 168.33 -55.36 177.8 -55.36 L 177.8 -55.36 Q 177.86 -55.36 177.98 -55.36 L 177.98 -55.36 Q 187.87 -55.36 194.52 -48.28 L 194.52 -48.28 Q 200.87 -41.26 200.87 -30.4 L 200.87 -30.4 Q 200.87 -19.04 194.34 -11.78 L 194.34 -11.78 Q 187.99 -4.52 177.73 -4.52 L 177.73 -4.52 Q 167.97 -4.52 161.35 -11.51 Q 154.72 -18.49 154.72 -30.15 Z M 217.71 -29.48 L 217.71 -29.48 Q 217.71 -15.87 226.32 -7.14 L 226.32 -7.14 Q 234.92 1.71 248.23 1.77 L 248.23 1.77 Q 250.61 1.77 253.6 1.07 Q 256.59 0.37 259.22 -0.43 Q 261.84 -1.22 263.61 -1.95 L 263.61 -1.95 L 265.44 -2.62 L 263.98 -7.39 Q 263.98 -7.39 262.33 -6.71 L 262.33 -6.71 Q 260.68 -6.1 258.45 -5.43 Q 256.23 -4.76 253.66 -4.12 Q 251.1 -3.48 249.21 -3.48 L 249.21 -3.48 Q 238.22 -3.48 231.2 -10.86 L 231.2 -10.86 Q 224.73 -17.64 224.06 -28.14 L 224.06 -28.14 L 277.47 -28.14 Q 276.73 -43.64 268.74 -52.12 L 268.74 -52.12 Q 260.62 -60.73 247.8 -60.73 L 247.8 -60.73 Q 234.68 -60.73 226.2 -51.88 Q 217.71 -43.03 217.71 -29.48 Z M 270.57 -33.75 L 224.3 -33.75 Q 225.71 -42.6 230.59 -47.85 L 230.59 -47.85 Q 237.24 -55.24 247.31 -55.24 L 247.31 -55.24 Q 256.96 -55.24 263.18 -49.26 L 263.18 -49.26 Q 269.35 -43.15 270.57 -33.75 L 270.57 -33.75 Z M 276.31 -59.14 L 276.31 -53.53 L 287.54 -53.53 L 287.54 -5.62 L 287.54 0 L 306.21 0 L 306.21 -5.62 L 294.07 -5.62 L 294.07 -32.1 Q 294.07 -43.7 300.2 -49.1 Q 306.34 -54.5 319.03 -54.5 L 319.03 -54.5 L 321.41 -54.5 L 321.41 -60.73 L 319.03 -60.85 Q 318.36 -60.91 317.63 -60.91 L 317.63 -60.91 Q 316.16 -60.91 314.7 -60.73 L 314.7 -60.73 Q 312.38 -60.49 310.09 -60.06 Q 307.8 -59.63 305.69 -58.87 Q 303.59 -58.11 301.94 -57.25 L 301.94 -57.25 Q 299.8 -56.15 297.94 -54.02 Q 296.08 -51.88 295.14 -50.38 Q 294.19 -48.89 294.07 -48.65 L 294.07 -48.65 L 294.07 -59.14 L 276.31 -59.14 Z M 326.05 -59.14 L 326.05 -53.53 L 336.43 -53.53 L 336.43 -5.62 L 336.55 -5.62 L 336.55 0 L 353.09 0 L 353.09 -5.62 L 342.96 -5.62 L 342.96 -59.14 L 326.05 -59.14 Z M 332.95 -81.12 L 332.95 -81.12 Q 332.95 -79.1 334.44 -77.61 Q 335.94 -76.11 337.95 -76.11 L 337.95 -76.11 Q 339.97 -76.11 341.46 -77.61 Q 342.96 -79.1 342.96 -81.24 L 342.96 -81.24 Q 342.96 -83.25 341.43 -84.75 Q 339.9 -86.24 337.95 -86.24 L 337.95 -86.24 Q 335.94 -86.24 334.44 -84.75 Q 332.95 -83.25 332.95 -81.12 Z M 354.43 -28.99 L 354.43 -28.99 Q 354.43 -16.11 362.79 -7.63 L 362.79 -7.63 Q 371.28 0.85 383.67 0.85 L 383.67 0.85 Q 390.32 0.85 396.79 -2.38 L 396.79 -2.38 Q 403.14 -5.62 407.29 -13 L 407.29 -13 L 407.29 2.01 Q 407.29 11.66 400.91 16.88 Q 394.53 22.09 384.4 22.09 L 384.4 22.09 Q 382.87 22.09 380.77 21.79 Q 378.66 21.48 376.8 21.12 Q 374.94 20.75 373.6 20.45 L 373.6 20.45 L 372.19 20.14 L 370.67 25.76 Q 370.91 25.88 372.99 26.37 Q 375.06 26.86 378.23 27.44 Q 381.41 28.02 383.79 28.02 L 383.79 28.02 Q 397.03 28.02 405.43 20.75 Q 413.82 13.49 413.82 1.4 L 413.82 1.4 L 413.82 -53.53 L 424.68 -53.53 L 424.68 -59.14 L 407.29 -59.14 L 407.29 -46.26 Q 401.67 -54.87 395.81 -57.86 L 395.81 -57.86 Q 389.83 -60.73 383.79 -60.73 L 383.79 -60.73 Q 371.52 -60.73 362.92 -51.51 L 362.92 -51.51 Q 354.43 -42.24 354.43 -28.99 Z M 361.02 -29.48 L 361.02 -29.48 Q 361.02 -40.1 367.68 -47.73 L 367.68 -47.73 Q 374.33 -55.11 384.03 -55.11 L 384.03 -55.11 Q 393.55 -55.11 400.57 -47.61 L 400.57 -47.61 Q 407.29 -40.1 407.29 -29.48 L 407.29 -29.48 Q 407.29 -18.86 400.57 -11.78 L 400.57 -11.78 Q 393.92 -4.64 384.03 -4.64 L 384.03 -4.64 Q 374.02 -4.64 367.43 -11.6 L 367.43 -11.6 Q 361.08 -18.49 361.02 -29.48 Z" stroke-linecap="round" />
</g>
<g transform="matrix(1.6632975869501836 0 0 1.6632975869501836 640 348.2779270633397)" style="" id="logo-logo"  >
	<g transform="matrix(1.2371972829297104 0 0 1.2371972829297104 0 0)" style=""  >
	<g transform="matrix(1 0 0 1 0 0)"  >
<linearGradient id="SVGID_79725" gradientUnits="userSpaceOnUse" gradientTransform="matrix(1 0 0 1 -100 -100)"  x1="0" y1="0" x2="0" y2="201">
<stop offset="0%" style="stop-color:rgb(66,230,149);stop-opacity: 1"/>
<stop offset="100%" style="stop-color:rgb(59,178,184);stop-opacity: 1"/>
</linearGradient>
<polygon style="stroke: none; stroke-width: 1; stroke-dasharray: none; stroke-linecap: butt; stroke-dashoffset: 0; stroke-linejoin: miter; stroke-miterlimit: 4; fill: url(#SVGID_79725); fill-rule: nonzero; opacity: 1;"  paint-order="stroke"  points="100,100 0,100 0,95.12 95.12,95.12 95.12,-95.12 -95.12,-95.12 -95.12,0 -100,0 -100,-100 100,-100 100,100 " />
</g>
</g>
</g>
<g transform="matrix(1.965451055662188 0 0 1.9654510556621874 644.7159309021113 348.6589100959692)" id="tagline-ff537dab-55fc-4240-99ba-44e74590ab84-logo-path"  >
<linearGradient id="SVGID_79726" gradientUnits="userSpaceOnUse" gradientTransform="matrix(1 0 0 1 2.0600000000000023 -105.96)"  x1="0" y1="0" x2="0" y2="167">
<stop offset="0%" style="stop-color:rgb(66,230,149);stop-opacity: 1"/>
<stop offset="100%" style="stop-color:rgb(59,178,184);stop-opacity: 1"/>
</linearGradient>
<path style="stroke: none; stroke-width: 0; stroke-dasharray: none; stroke-linecap: butt; stroke-dashoffset: 0; stroke-linejoin: miter; stroke-miterlimit: 4; fill: url(#SVGID_79726); fill-rule: nonzero; opacity: 1;"  paint-order="stroke"  transform=" translate(-47.84, 52.98)" d="M 2.06 -105.96 L 2.06 -98.87 L 16.07 -98.87 L 16.07 -7.01 L 16.07 0 L 39.46 0 L 39.46 -7.01 L 24.83 -7.01 L 24.83 -55.68 L 24.83 -98.87 L 39.3 -98.87 L 39.3 -105.96 L 2.06 -105.96 Z M 69.93 -98.87 L 25.9 -55.68 L 69.93 -7.01 L 75.94 0 L 93.62 0 L 93.62 -7.01 L 82.19 -7.01 L 37.1 -56.44 L 80.06 -98.87 L 91.41 -98.87 L 91.41 -105.96 L 76.93 -105.96 L 69.93 -98.87 Z" stroke-linecap="round" />
</g>
</svg>